HIERARCHY
ROOT Hips
{
  OFFSET 40.9192 92.6879 18.85
  CHANNELS 6 Xposition Yposition Zposition Zrotation Xrotation Yrotation
  JOINT LeftUpLeg
  {
    OFFSET 8.64259 1.95398 -2.38835
    CHANNELS 3 Zrotation Xrotation Yrotation
    JOINT LeftLeg
    {
      OFFSET 43.7702 0 0
      CHANNELS 3 Zrotation Xrotation Yrotation
      JOINT LeftFoot
      {
        OFFSET 40.6238 0 0
        CHANNELS 3 Zrotation Xrotation Yrotation
        JOINT LeftToeBase
        {
          OFFSET 12.7242 0 0
          CHANNELS 3 Zrotation Xrotation Yrotation
          End Site
          {
            OFFSET 0 0 0
          }
        }
      }
    }
  }
  JOINT RightUpLeg
  {
    OFFSET -8.2249 1.95398 -2.59336
    CHANNELS 3 Zrotation Xrotation Yrotation
    JOINT RightLeg
    {
      OFFSET 43.5653 0 0
      CHANNELS 3 Zrotation Xrotation Yrotation
      JOINT RightFoot
      {
        OFFSET 40.6238 0 0
        CHANNELS 3 Zrotation Xrotation Yrotation
        JOINT RightToeBase
        {
          OFFSET 12.7242 0 0
          CHANNELS 3 Zrotation Xrotation Yrotation
          End Site
          {
            OFFSET 0 0 0
          }
        }
      }
    }
  }
  JOINT Spine
  {
    OFFSET 0.165834 0.87714 6.61349
    CHANNELS 3 Zrotation Xrotation Yrotation
    JOINT Spine1
    {
      OFFSET 7.38963 1.71661e-005 0
      CHANNELS 3 Zrotation Xrotation Yrotation
      JOINT Spine2
      {
        OFFSET 11.9445 1.14441e-005 0
        CHANNELS 3 Zrotation Xrotation Yrotation
        JOINT Spine3
        {
          OFFSET 14.7254 4.19617e-005 0
          CHANNELS 3 Zrotation Xrotation Yrotation
          JOINT Spine4
          {
            OFFSET 10.9679 0 0
            CHANNELS 3 Zrotation Xrotation Yrotation
            JOINT RightShoulder
            {
              OFFSET 2.46616 -1.6653 3.69651
              CHANNELS 3 Zrotation Xrotation Yrotation
              JOINT RightArm
              {
                OFFSET 13.0012 0 0
                CHANNELS 3 Zrotation Xrotation Yrotation
                JOINT RightForeArm
                {
                  OFFSET 28.7848 1.52588e-005 0
                  CHANNELS 3 Zrotation Xrotation Yrotation
                  JOINT RightHand
                  {
                    OFFSET 26.5688 1.52588e-005 0
                    CHANNELS 3 Zrotation Xrotation Yrotation
                    End Site
                    {
                      OFFSET 0 0 0
                    }
                  }
                }
              }
            }
            JOINT LeftShoulder
            {
              OFFSET 2.38034 -1.29275 -3.7523
              CHANNELS 3 Zrotation Xrotation Yrotation
              JOINT LeftArm
              {
                OFFSET 16.3182 6.10351e-005 0
                CHANNELS 3 Zrotation Xrotation Yrotation
                JOINT LeftForeArm
                {
                  OFFSET 27.0901 0 0
                  CHANNELS 3 Zrotation Xrotation Yrotation
                  JOINT LeftHand
                  {
                    OFFSET 24.5451 1.52588e-005 0
                    CHANNELS 3 Zrotation Xrotation Yrotation
                    End Site
                    {
                      OFFSET 0 0 0
                    }
                  }
                }
              }
            }
            JOINT Neck
            {
              OFFSET 5.0226 -0.0266342 0
              CHANNELS 3 Zrotation Xrotation Yrotation
              JOINT Head
              {
                OFFSET 6.69363 2.86102e-005 0
                CHANNELS 3 Zrotation Xrotation Yrotation
                End Site
                {
                  OFFSET 0 0 0
                }
              }
            }
          }
        }
      }
    }
  }
}
MOTION
Frames:	15
Frame Time:	0.0416667
36.205 92.1072 -128.76 108.979 -84.652 111.57 -169.677 -8.48303 97.9968 -38.4517 23.6971 1.52769 47.5169 -7.54136 -6.2457 50.1732 19.1821 11.6853 175.752 27.3017 94.7321 -26.6142 0.0448861 1.31806 60.1091 -0.987094 -0.511344 38.9957 0.374414 -5.04576 -1.169 7.82611 -90.3728 11.2205 -2.49998 -0.496124 -0.448079 -2.51939 -0.385553 -22.9989 -2.23524 -1.22486 -2.98628 -2.23524 -1.22486 93.3949 -50.4069 -95.5338 29.0157 -3.76256 17.2785 -8.57271 -26.1245 -38.3053 -1.43005 -0.638442 7.27014 -94.7594 -46.0048 70.4505 -21.8939 10.8681 -2.30321 9.93803 9.47221 -48.2442 18.4789 1.67718 5.2141 7.58103 2.2132 -1.16793 -0.755715 2.51458 3.62387 
35.4997 92.2754 -119.933 132.816 -85.3565 135.224 -171.225 -1.39512 97.8498 -53.3727 19.6324 1.69545 36.2223 -13.7879 -8.76536 35.5027 5.19297 15.18 175.863 24.7539 95.8741 -35.6582 -1.23801 1.07015 66.3277 -2.77845 -1.50537 31.9023 0.250032 -2.53011 -0.953739 7.8952 -90.3126 11.0808 -2.04346 -0.424683 -0.588616 -2.06017 -0.33431 -23.1339 -1.82133 -1.01937 -3.12131 -1.82133 -1.01938 93.4871 -48.9054 -95.6465 32.0902 -2.89696 14.9516 -10.7671 -25.1797 -39.6951 -0.774249 -0.599015 8.01564 -95.7483 -46.5649 69.1183 -23.3092 11.2543 -0.910306 6.31153 9.22533 -40.9615 18.0204 1.64218 5.24148 7.71891 1.78027 -0.778934 -1.26257 1.97798 2.76355 
35.0532 94.1275 -111.237 172.899 -86.6079 174.89 -170.959 7.5537 96.2259 -60.9858 17.2431 0.506191 43.5806 -9.26103 -3.6983 37.6961 7.35978 12.927 176.796 17.4431 96.2822 -33.2714 -2.85949 0.172442 69.556 -4.03618 -2.11259 27.8571 0.0724945 -1.60914 -0.50081 7.83923 -90.169 11.1968 -1.07532 -0.231698 -0.473699 -1.08448 -0.184141 -23.0118 -0.955983 -0.544196 -2.99912 -0.955977 -0.544194 92.657 -47.8286 -97.1487 33.1921 -6.14996 12.6349 -7.52278 -23.0467 -41.9537 -5.51753 -0.868076 6.14219 -95.6837 -47.6979 69.5822 -23.7937 13.0897 -0.192189 4.93547 11.2552 -35.7286 14.7333 1.35399 5.20318 6.46379 1.1748 -0.302899 -1.06455 1.2746 1.98876 
34.3498 95.8374 -102.662 -128.878 -85.5907 -128.96 -169.579 14.0967 93.2121 -55.7164 14.792 -1.59125 50.0085 -5.10255 -1.7357 40.7296 10.2271 11.6924 177.779 10.586 95.2079 -29.5571 -5.40956 -1.78305 70.9084 -4.67016 -2.3918 28.8626 0.0682442 -0.993924 -0.0462373 7.75971 -89.826 11.3538 -0.0108138 0.347928 -0.317218 0.00450962 0.348063 -22.8519 -0.114881 0.328587 -2.83929 -0.114876 0.328593 92.49 -47.029 -97.5706 33.6389 -8.36821 10.3502 -11.4882 -22.1243 -50.8348 -6.61384 -0.842156 4.44719 -95.0387 -47.6483 70.5399 -27.1163 11.579 2.81008 6.37123 13.3626 -33.7121 12.424 0.990763 3.93128 5.31968 1.12492 0.416592 -0.64912 1.08909 1.25578 
34.1554 96.8405 -94.4541 -108.872 -83.2614 -109.361 -169.661 17.4602 91.7879 -40.9431 11.1135 -2.77252 57.0739 -0.248893 0.78108 41.9486 11.6992 14.7093 176.483 3.53562 93.7292 -24.862 -9.47907 -1.50389 70.6544 -4.68794 -2.3981 30.7714 0.233662 -2.91691 0.306783 7.70238 -89.732 11.4675 0.735672 0.458943 -0.203367 0.755157 0.426109 -22.7389 0.56373 0.658823 -2.72629 0.563728 0.658818 92.3781 -44.9666 -98.1767 33.9757 -9.70073 8.3974 -15.4091 -19.9395 -59.5917 -6.79375 -0.796328 3.51788 -94.5213 -47.8518 71.382 -29.5892 11.8631 7.08963 4.84798 10.7026 -33.8821 12.4843 0.999463 3.96826 4.48943 1.43493 1.42234 -0.214131 1.23146 0.75197 
34.2168 96.5477 -86.2028 -91.9457 -81.6579 -92.0932 -171.17 20.0724 91.4848 -21.9877 9.90483 -2.58844 60.7357 2.23241 0.998361 43.3982 13.4114 16.6708 174.94 -1.61042 92.5896 -21.16 -11.1703 -0.74367 72.3728 -5.44798 -2.70504 31.8492 0.252807 -2.64352 0.532931 7.57633 -89.7548 11.7197 1.17509 0.365237 0.0492035 1.19003 0.313158 -22.4889 1.01099 0.701538 -2.47624 1.011 0.701548 92.4611 -43.7618 -98.2953 32.1121 -10.9631 3.98797 -16.8774 -17.7398 -65.0485 -8.47719 -0.747545 1.97864 -93.9185 -48.2086 72.3959 -31.2923 12.4442 9.86276 6.05232 12.6217 -34.8431 11.9222 1.04519 4.6686 5.16507 1.44161 3.1412 -0.918359 0.904368 -0.666442 
34.2221 95.3064 -77.8698 -83.742 -79.3072 -84.1746 -172.554 22.94 91.9858 -7.09577 12.2857 -2.62879 60.5057 1.79696 0.937693 43.4733 13.3217 15.4397 174.257 -5.42019 90.9879 -21.1302 -13.5578 -1.70073 73.2655 -6.11347 -2.97397 36.9451 0.377661 -4.44455 0.784819 7.50045 -89.712 11.8709 1.69628 0.39279 0.200976 1.71193 0.317724 -22.341 1.4998 0.884536 -2.32835 1.4998 0.88452 92.3987 -43.7584 -98.3996 28.5245 -11.4131 -0.023545 -20.0443 -16.0744 -70.8542 -9.76578 -0.838817 2.37143 -93.3472 -48.8489 73.4337 -32.3914 12.435 12.1369 5.92467 12.196 -35.4798 13.6208 1.25262 5.1886 6.06526 1.8629 3.56073 -2.60253 1.24261 -0.248883 
34.5202 93.7225 -69.4365 -83.1981 -76.2594 -83.6572 -172.687 26.9208 92.615 -5.97423 15.3521 -2.70738 61.868 2.48692 2.04479 44.7761 14.514 14.6192 174.316 -7.27337 89.1816 -26.4308 -18.354 -4.44455 72.0934 -6.00584 -3.00777 43.787 0.420666 -4.8013 1.09252 7.51568 -89.6638 11.8398 2.33081 0.421711 0.170856 2.3471 0.31866 -22.3778 2.09627 1.10299 -2.3652 2.09627 1.10299 92.2661 -42.4007 -98.9248 28.6962 -9.83844 -2.81626 -24.0982 -16.5245 -71.9364 -11.0809 -0.688714 0.285404 -91.9391 -49.3885 75.6865 -33.1064 10.2834 14.2338 6.54121 10.4151 -37.608 16.2498 1.40992 4.77403 7.0666 2.30265 3.84374 -4.44877 1.60235 -0.238292 
34.9498 92.7017 -59.3731 -85.6632 -75.5155 -87.2772 -171.95 28.6645 90.6575 -17.1479 14.4777 -3.13713 60.8372 1.89608 0.825384 42.3018 11.9316 13.764 174.825 -7.16852 87.1991 -37.159 -20.1876 -7.81454 62.7053 -2.09701 -1.21457 52.2344 1.10607 -0.722399 1.23053 7.54446 -89.457 11.7781 2.70241 0.796883 0.109783 2.73487 0.677088 -22.4414 2.33795 1.57256 -2.42873 2.33794 1.57255 92.2054 -42.4189 -99.021 29.3753 -8.27763 -0.998016 -25.4093 -16.8223 -71.5584 -12.9024 -1.0097 2.62229 -91.1094 -48.274 76.6638 -33.6901 8.94436 16.016 8.26937 9.48742 -42.656 18.9263 1.9147 6.23155 6.49203 1.98021 2.27479 -5.88358 1.56375 0.344932 
35.2015 91.6536 -48.7296 -86.1573 -75.6082 -88.1147 -170.783 30.9079 89.3534 -32.8717 16.0814 -3.93551 61.4356 2.36579 3.67181 39.4151 8.43489 1.83544 178.901 0.701961 87.1319 -53.65 -13.9605 -7.90216 40.0332 5.09095 5.03916 37.0511 0.416901 0.4448 1.2245 7.43851 -89.3557 11.9865 2.73847 0.987861 0.318182 2.77929 0.866301 -22.2316 2.31496 1.7655 -2.21899 2.31496 1.7655 92.6655 -43.6473 -97.9794 28.8751 -8.4188 2.08937 -22.4212 -18.3092 -67.1979 -14.4496 -1.21081 3.67919 -90.8476 -46.7342 76.6912 -31.7155 7.31341 15.9978 8.86598 7.11725 -48.1087 21.0422 2.09767 6.16094 5.27439 1.94483 0.46553 -8.04587 1.81962 1.03241 
34.9619 90.3094 -38.9388 -99.7346 -78.8764 -102.802 -171.374 27.5544 86.1027 -44.186 16.5669 -3.37577 66.9468 7.8622 8.01267 32.9539 3.4466 -4.14944 179.934 13.6867 88.9173 -73.6601 -0.35531 -4.50328 38.4993 3.26845 3.53978 31.2928 0.411981 -7.51789 0.699196 7.73179 -89.0991 11.3966 1.81177 1.61396 -0.273963 1.88104 1.53265 -22.8067 1.24304 2.08373 -2.79405 1.24304 2.08373 93.28 -45.3649 -96.6206 28.5537 -7.55129 4.42147 -16.3634 -18.2918 -61.1798 -26.1603 -1.6929 2.94689 -91.1231 -43.104 75.3313 -24.5199 3.53968 12.1237 9.38021 4.37323 -55.6696 24.8339 2.23082 5.19693 2.9429 2.19244 -2.13843 -7.20653 2.41315 2.69859 
34.7273 90.7318 -30.679 -108.985 -82.1069 -113.249 -172.729 21.2286 84.0233 -44.3969 16.8197 -2.53107 69.0533 11.3236 10.0314 36.3288 5.91144 -4.11568 178.265 33.0439 88.8829 -84.5166 4.89946 -2.36226 47.6384 -0.0388788 0.227235 36.2429 0.36676 -8.7063 0.0909242 7.89243 -88.8983 11.0757 0.692248 2.12813 -0.596767 0.78522 2.09562 -23.118 0.0208439 2.23775 -3.10535 0.0208428 2.23774 93.9147 -45.3309 -95.5843 27.4895 -2.54932 10.1909 -10.8731 -10.0174 -64.5754 -38.7731 -2.13454 1.78518 -89.8838 -37.7222 75.9106 -11.7909 -5.06845 2.07281 11.5772 3.26596 -63.5885 24.5085 2.33638 5.75863 1.91827 2.72954 -3.49263 -7.84945 3.05174 4.01322 
35.3427 94.2241 -22.733 -129.563 -84.1237 -129.863 -173.791 10.8627 88.3725 -35.2348 21.1044 -0.947121 66.5619 9.95826 9.80068 38.0698 7.23123 -2.13358 174.073 50.775 95.1269 -88.0647 5.90371 -1.1744 50.9183 -0.501272 -0.135773 33.8491 0.41855 -8.34611 -0.662652 8.02748 -89.453 10.8224 -1.06672 1.18803 -0.848832 -1.0134 1.23381 -23.3842 -1.37447 0.812518 -3.37157 -1.37446 0.81252 93.7356 -40.8688 -96.7422 21.7194 1.29945 17.3483 -13.4292 -6.38878 -73.836 -42.1823 -1.28958 -0.964691 -87.7572 -28.5375 77.151 -4.14926 -20.0703 -0.427378 10.8559 1.96089 -72.4827 25.8691 2.30883 5.14782 0.262202 4.6731 -2.89534 -9.50103 4.71126 6.44252 
36.6413 101.355 -12.7321 -141.26 -81.8041 -135.646 -172.271 -2.44477 93.6763 -20.6249 20.739 0.568274 49.8951 -4.35098 -2.72538 37.4228 6.87247 3.77779 167.181 57.2823 103.504 -84.272 2.4465 0.156288 52.727 0.0826986 0.269128 29.9223 0.407229 -6.43837 -0.778085 8.36205 -90.4619 10.1438 -1.76101 -0.768685 -1.52614 -1.79312 -0.690419 -24.0664 -1.44857 -1.26244 -4.0538 -1.44858 -1.26246 94.1761 -36.216 -96.9207 12.0344 4.02169 22.4432 -15.7417 -5.27371 -77.2176 -39.9298 -1.57455 0.0796772 -86.2088 -24.1531 79.027 3.88408 -27.5481 2.68838 6.15131 1.24021 -76.1785 26.2042 1.36971 1.35918 -5.88024 5.94484 0.442548 -7.56902 5.71598 8.67571 
35.7729 108.196 -3.03349 -152.572 -83.9037 -149.57 -170.699 3.93244 94.0858 -35.0863 18.1443 -1.22786 39.9298 -10.4372 -5.94158 27.4606 -2.38928 10.5222 166.732 56.1981 99.4329 -71.3761 -1.14196 1.87174 49.2528 2.18766 1.99403 29.6757 0.473426 -7.48879 -1.0749 8.48354 -90.3124 9.9052 -2.28407 -0.43187 -1.76379 -2.30087 -0.330879 -24.312 -2.04866 -1.09862 -4.29938 -2.04866 -1.09862 94.5795 -35.6897 -96.2868 5.14886 8.03925 24.8378 -12.4493 -4.11483 -76.5197 -39.0146 -1.20937 -1.09156 -84.7538 -21.7048 81.4665 8.56005 -32.0026 5.94265 5.41427 1.63359 -81.0414 24.6495 0.890449 -0.278849 -11.1695 5.76698 1.04243 -5.59492 5.72167 9.55037 
